<svg class="lds-spinner" width="200px"  height="200px"  xmlns="http://www.w3.org/2000/svg" xmlns:xlink="http://www.w3.org/1999/xlink" viewBox="0 0 100 100" preserveAspectRatio="xMidYMid" style="background: none;">
<g>
  <rect x="42" y="42" rx="378" ry="45" width="16" height="16" fill="#2c3e50">
    <animate attributeName="opacity" values="1;0" times="0;1" dur="12s" begin="0" repeatCount="indefinite"></animate>
  </rect>
</g>
<g transform="rotate(0 50 50)">
  <rect x="42" y="5" rx="378" ry="45" width="16" height="30" fill="#2c3e50">
    <animate attributeName="opacity" values="1;0" times="0;1" dur="1s" begin="-0.8333333333333334s" repeatCount="indefinite"></animate>
  </rect>
</g><g transform="rotate(60 50 50)">
  <rect x="42" y="5" rx="378" ry="45" width="16" height="30" fill="#2c3e50">
    <animate attributeName="opacity" values="1;0" times="0;1" dur="1s" begin="-0.6666666666666666s" repeatCount="indefinite"></animate>
  </rect>
</g><g transform="rotate(120 50 50)">
  <rect x="42" y="5" rx="378" ry="45" width="16" height="30" fill="#2c3e50">
    <animate attributeName="opacity" values="1;0" times="0;1" dur="1s" begin="-0.5s" repeatCount="indefinite"></animate>
  </rect>
</g><g transform="rotate(180 50 50)">
  <rect x="42" y="5" rx="378" ry="45" width="16" height="30" fill="#2c3e50">
    <animate attributeName="opacity" values="1;0" times="0;1" dur="1s" begin="-0.3333333333333333s" repeatCount="indefinite"></animate>
  </rect>
</g><g transform="rotate(240 50 50)">
  <rect x="42" y="5" rx="378" ry="45" width="16" height="30" fill="#2c3e50">
    <animate attributeName="opacity" values="1;0" times="0;1" dur="1s" begin="-0.16666666666666666s" repeatCount="indefinite"></animate>
  </rect>
</g><g transform="rotate(300 50 50)">
  <rect x="42" y="5" rx="378" ry="45" width="16" height="30" fill="#2c3e50">
    <animate attributeName="opacity" values="1;0" times="0;1" dur="1s" begin="0s" repeatCount="indefinite"></animate>
  </rect>
</g></svg>
